<svg xmlns="http://www.w3.org/2000/svg" height="968pt" version="1.1" viewBox="0 -23 968.74997 968" width="968pt">
<g id="surface1">
<path d="M 960.9375 80.605469 C 956.101562 77.816406 950.152344 77.816406 945.3125 80.605469 L 732.023438 202.480469 L 675.605469 188.417969 L 668.019531 218.730469 L 730.519531 234.355469 C 734.425781 235.359375 738.566406 234.796875 742.066406 232.796875 L 937.5 121.058594 L 937.5 772.621094 L 732.082031 889.949219 L 238.179688 766.511719 C 234.273438 765.53125 230.128906 766.085938 226.625 768.074219 L 31.25 879.679688 L 31.25 228.183594 L 236.671875 110.792969 L 293.082031 124.855469 L 300.679688 94.542969 L 238.179688 78.917969 C 234.273438 77.929688 230.128906 78.496094 226.625 80.480469 L 7.875 205.480469 C 2.984375 208.28125 -0.0234375 213.484375 0 219.125 L 0 906.625 C -0.00390625 912.210938 2.960938 917.371094 7.804688 920.175781 C 12.636719 922.976562 18.605469 922.976562 23.4375 920.179688 L 236.734375 798.308594 L 730.644531 921.746094 C 734.550781 922.734375 738.6875 922.175781 742.1875 920.179688 L 960.9375 795.179688 C 965.785156 792.390625 968.753906 787.214844 968.75 781.625 L 968.75 94.125 C 968.746094 88.546875 965.765625 83.386719 960.9375 80.605469 Z M 960.9375 80.605469 " style=" stroke:none;fill-rule:nonzero;fill:rgb(0%,0%,0%);fill-opacity:1;" />
<path d="M 484.375 484.75 C 489.296875 484.75 493.925781 482.429688 496.875 478.496094 C 503.421875 469.667969 656.25 262.648438 656.25 172.25 C 656.25 77.328125 579.300781 0.375 484.375 0.375 C 389.453125 0.375 312.5 77.328125 312.5 172.25 C 312.5 262.648438 465.328125 469.667969 471.878906 478.496094 C 474.824219 482.429688 479.457031 484.75 484.375 484.75 Z M 484.375 31.625 C 562.007812 31.710938 624.917969 94.613281 625 172.25 C 625 232.980469 532.8125 374.636719 484.375 442.5625 C 435.9375 374.667969 343.75 233.03125 343.75 172.25 C 343.839844 94.613281 406.742188 31.710938 484.375 31.625 Z M 484.375 31.625 " style=" stroke:none;fill-rule:nonzero;fill:rgb(0%,0%,0%);fill-opacity:1;" />
<path d="M 578.125 172.25 C 578.125 120.46875 536.152344 78.5 484.375 78.5 C 432.609375 78.5 390.625 120.46875 390.625 172.25 C 390.625 224.027344 432.609375 266 484.375 266 C 536.132812 265.945312 578.070312 224.003906 578.125 172.25 Z M 421.875 172.25 C 421.875 137.726562 449.859375 109.75 484.375 109.75 C 518.890625 109.75 546.875 137.726562 546.875 172.25 C 546.875 206.765625 518.890625 234.75 484.375 234.75 C 449.859375 234.75 421.875 206.765625 421.875 172.25 Z M 421.875 172.25 " style=" stroke:none;fill-rule:nonzero;fill:rgb(0%,0%,0%);fill-opacity:1;" />
<path d="M 453.125 500.375 L 515.625 500.375 L 515.625 531.625 L 453.125 531.625 Z M 453.125 500.375 " style=" stroke:none;fill-rule:nonzero;fill:rgb(0%,0%,0%);fill-opacity:1;" />
<path d="M 531.25 500.375 L 562.5 500.375 L 562.5 531.625 L 531.25 531.625 Z M 531.25 500.375 " style=" stroke:none;fill-rule:nonzero;fill:rgb(0%,0%,0%);fill-opacity:1;" />
<path d="M 406.25 500.375 L 437.5 500.375 L 437.5 531.625 L 406.25 531.625 Z M 406.25 500.375 " style=" stroke:none;fill-rule:nonzero;fill:rgb(0%,0%,0%);fill-opacity:1;" />
</g>
</svg>