<?xml version="1.0" encoding="utf-8"?>
<!-- Generator: Adobe Illustrator 25.3.1, SVG Export Plug-In . SVG Version: 6.00 Build 0)  -->
<svg version="1.1" id="圖層_1" xmlns="http://www.w3.org/2000/svg" xmlns:xlink="http://www.w3.org/1999/xlink" x="0px" y="0px"
	 viewBox="0 0 968 968" style="enable-background:new 0 0 968 968;" xml:space="preserve">
<style type="text/css">
	.st0{fill:#7F7F7F;}
</style>
<g id="surface1">
	<path class="st0" d="M960.2,103.9c-4.8-2.8-10.8-2.8-15.6,0L731.5,225.7l-56.4-14.1l-7.6,30.3l62.5,15.6c3.9,1,8,0.4,11.5-1.6
		l195.3-111.7v651.1L731.5,912.6L238,789.3c-3.9-1-8-0.4-11.5,1.6L31.2,902.4v-651l205.3-117.3l56.4,14.1l7.6-30.3L238,102.2
		c-3.9-1-8-0.4-11.5,1.6L7.9,228.7c-4.9,2.8-7.9,8-7.9,13.6v687c0,5.6,3,10.7,7.8,13.5c4.8,2.8,10.8,2.8,15.6,0L236.6,821
		l493.5,123.3c3.9,1,8,0.4,11.5-1.6l218.6-124.9c4.8-2.8,7.8-8,7.8-13.5v-687C968,111.8,965,106.7,960.2,103.9z"/>
	<path class="st0" d="M484,507.7c4.9,0,9.5-2.3,12.5-6.2c6.5-8.8,159.3-215.7,159.3-306c0-94.8-76.9-171.7-171.7-171.7
		c-94.8,0-171.7,76.9-171.7,171.7c0,90.3,152.7,297.2,159.3,306C474.5,505.4,479.1,507.7,484,507.7z M484,55
		c77.6,0.1,140.4,62.9,140.5,140.5c0,60.7-92.1,202.2-140.5,270.1c-48.4-67.8-140.5-209.4-140.5-270.1C343.6,117.9,406.4,55,484,55z
		"/>
	<path class="st0" d="M577.7,195.5c0-51.7-41.9-93.7-93.7-93.7c-51.7,0-93.7,41.9-93.7,93.7c0,51.7,42,93.7,93.7,93.7
		C535.7,289.1,577.6,247.2,577.7,195.5z M421.5,195.5c0-34.5,28-62.5,62.5-62.5s62.5,28,62.5,62.5c0,34.5-28,62.5-62.5,62.5
		S421.5,230,421.5,195.5z"/>
	<path class="st0" d="M452.8,523.3h62.5v31.2h-62.5V523.3z"/>
	<path class="st0" d="M530.8,523.3h31.2v31.2h-31.2V523.3z"/>
	<path class="st0" d="M405.9,523.3h31.2v31.2h-31.2V523.3z"/>
</g>
</svg>
