<?xml version="1.0" encoding="utf-8"?>
<!-- Generator: Adobe Illustrator 25.3.1, SVG Export Plug-In . SVG Version: 6.00 Build 0)  -->
<svg version="1.1" id="圖層_1" xmlns="http://www.w3.org/2000/svg" xmlns:xlink="http://www.w3.org/1999/xlink" x="0px" y="0px"
	 viewBox="0 0 144 144" style="enable-background:new 0 0 144 144;" xml:space="preserve">
<style type="text/css">
	.st0{fill:#3F51B5;}
	.st1{fill:#FFFFFF;}
</style>
<path class="st0" d="M144,124c0,11-9,20-20,20H20c-11,0-20-9-20-20V20C0,9,9,0,20,0h104c11,0,20,9,20,20V124z"/>
<path class="st1" d="M113.5,76H100v52H80V76H68V60h12v-9.6c0-14,5.8-22.4,22.4-22.4H116v16h-9.1c-6.4,0-6.9,2.4-6.9,6.9V60h16
	L113.5,76z"/>
</svg>
