<svg xmlns="http://www.w3.org/2000/svg" xmlns:xlink="http://www.w3.org/1999/xlink" width="405" height="247" viewBox="0 0 405 247">
  <defs>
    <linearGradient id="linear-gradient" x1="0.5" x2="0.5" y2="1" gradientUnits="objectBoundingBox">
      <stop offset="0" stop-color="#2e302f"/>
      <stop offset="1" stop-color="#616161"/>
    </linearGradient>
    <filter id="露營體驗最佳選擇" x="84.04" y="22.102" width="106" height="30" filterUnits="userSpaceOnUse">
      <feOffset dy="3" input="SourceAlpha"/>
      <feGaussianBlur stdDeviation="3" result="blur"/>
      <feFlood flood-opacity="0.161"/>
      <feComposite operator="in" in2="blur"/>
      <feComposite in="SourceGraphic"/>
    </filter>
  </defs>
  <g id="Group_706" data-name="Group 706" transform="translate(-0.424)">
    <rect id="Rectangle_309" data-name="Rectangle 309" width="405" height="247" rx="18" transform="translate(0.424 0)" fill="url(#linear-gradient)"/>
    <g id="Group_704" data-name="Group 704" transform="translate(27.88 28.102)">
      <g transform="matrix(1, 0, 0, 1, -27.46, -28.1)" filter="url(#露營體驗最佳選擇)">
        <text id="露營體驗最佳選擇-2" data-name="露營體驗最佳選擇" transform="translate(93.04 38.1)" fill="#fff" font-size="9" font-family="YuGothicUI-Regular, Yu Gothic UI" letter-spacing="0.253em"><tspan x="0" y="0">露營體驗最佳選擇</tspan></text>
      </g>
      <g id="Group_229" data-name="Group 229" transform="translate(0 0.387)">
        <path id="Path_19" data-name="Path 19" d="M198.837,649l-23.756,41.146h47.512Z" transform="translate(-175.082 -649)" fill="#006837"/>
        <path id="Path_20" data-name="Path 20" d="M198.837,913l-23.756,20.612h47.512Z" transform="translate(-175.082 -892.466)" fill="#39b54a"/>
        <path id="Path_21" data-name="Path 21" d="M198.837,1045l-23.756,10.345,23.756,1.859,23.756-1.859Z" transform="translate(-175.082 -1014.199)" fill="#ba8a00"/>
        <path id="Path_22" data-name="Path 22" d="M198.837,1183.211,222.593,1178l-23.756,1.272L175.082,1178Z" transform="translate(-175.082 -1136.854)" fill="#ba8a00"/>
      </g>
      <g id="Group_230" data-name="Group 230" transform="translate(53.528 18.372)">
        <path id="Path_297" data-name="Path 297" d="M1608.138,824.36a6.321,6.321,0,0,0-1.109-4.2,3.705,3.705,0,0,0-2.967-1.2,5.883,5.883,0,0,0-2.631.6,9.708,9.708,0,0,0-2.27,1.608h-.078a4.824,4.824,0,0,0-1.109-1.5,4.028,4.028,0,0,0-2.451-.708,6.056,6.056,0,0,0-2.528.572,9.214,9.214,0,0,0-2.193,1.5h-.077a1.921,1.921,0,1,0-3.838,0h-.006v13.353h.006c0,.006,0,.011,0,.017a1.922,1.922,0,1,0,3.838,0c0-.006,0-.011,0-.017h.026V824.142a7.975,7.975,0,0,1,1.573-1.5,2.883,2.883,0,0,1,1.6-.518,1.3,1.3,0,0,1,1.161.6,5.189,5.189,0,0,1,.49,2.725v8.937h.023c0,.006,0,.011,0,.017a1.922,1.922,0,1,0,3.838,0c0-.006,0-.011,0-.017h.009V824.142a7.183,7.183,0,0,1,1.574-1.5,3.313,3.313,0,0,1,1.574-.518,1.349,1.349,0,0,1,1.212.627,5.666,5.666,0,0,1,.464,2.752v8.883h.04c0,.006,0,.011,0,.017a1.922,1.922,0,1,0,3.838,0c0-.061,0-.122-.008-.181Z" transform="translate(-1551.176 -815.853)" fill="#fff"/>
        <path id="Path_298" data-name="Path 298" d="M2059.772,826.337a7.217,7.217,0,0,0-2.611.514,7.91,7.91,0,0,0-1.843,1.107h-.082l.028.021h-.04a2.027,2.027,0,0,0-4.054.049c0,.055,0,.11.009.164l.188,20.513c0,.054-.007.109-.006.164a2.027,2.027,0,0,0,4.054-.037s0,0,0,0h.04l-.075-8.174h.054a7.21,7.21,0,0,0,2,1.072,6.993,6.993,0,0,0,2.347.36,6.211,6.211,0,0,0,4.832-1.952,8.988,8.988,0,0,0,1.744-6.011c-.026-2.834-.807-4.761-1.962-5.95A6.046,6.046,0,0,0,2059.772,826.337Zm1.606,11.784a3.042,3.042,0,0,1-2.441,1.194,4.364,4.364,0,0,1-1.911-.418,4.629,4.629,0,0,1-1.673-1.238l-.062-6.784a5.641,5.641,0,0,1,1.7-1.3,4.374,4.374,0,0,1,1.822-.425,2.874,2.874,0,0,1,2.436,1.177,6.92,6.92,0,0,1,.907,3.888C2062.18,836.288,2061.864,837.463,2061.379,838.121Z" transform="translate(-1991.333 -822.507)" fill="#fff"/>
        <path id="Path_299" data-name="Path 299" d="M3221.992,889.607a4.434,4.434,0,0,0-3.525-1.343,7.032,7.032,0,0,0-2.769.615,14.461,14.461,0,0,0-2.518,1.483h-.139l.047-.028c.012-.092.019-.826.019-.921a2.108,2.108,0,1,0-4.215,0c0,.065,0,.77.009.833v9.166c-.006.063-.009.128-.009.193a2.108,2.108,0,1,0,4.215,0q0-.107-.01-.212v-5.926a9.332,9.332,0,0,1,1.986-1.511,4.188,4.188,0,0,1,1.818-.476,1.616,1.616,0,0,1,1.538.755,5.426,5.426,0,0,1,.5,2.881v4.2a2.107,2.107,0,1,0,4.2.292h0V893.8A6.377,6.377,0,0,0,3221.992,889.607Z" transform="translate(-3088.879 -880.642)" fill="#fff"/>
        <path id="Path_300" data-name="Path 300" d="M915.711,771.008a2.116,2.116,0,0,0-2.1,1.841h0c-.4,2.036-1.822,4.1-4.368,4.1-2.707,0-5.091-1.983-5.091-7.557,0-5.467,2.251-7.584,5.145-7.584,2.3,0,3.51,1.42,4.127,3.7h.01s0,0,0,.007a2.126,2.126,0,1,0,4-1c-1.134-3.65-4.226-5.407-8.137-5.407a9.432,9.432,0,0,0-6.485,2.332c-1.822,1.688-2.867,4.368-2.867,7.852,0,3.939,1.125,6.539,2.921,8.146a9.564,9.564,0,0,0,6.4,2.224,8.726,8.726,0,0,0,8.326-5.568,2.1,2.1,0,0,0,.2-.6l.022-.076h-.01a2.139,2.139,0,0,0,.02-.286A2.116,2.116,0,0,0,915.711,771.008Z" transform="translate(-899.944 -759.101)" fill="#fff"/>
        <path id="Path_301" data-name="Path 301" d="M1295.27,845.448v-6.57c0-4.687-2.316-5.913-6.131-5.913-4.325,0-5.907,2.091-6.509,4.212h-.006a2.065,2.065,0,0,0,1.785,2.336,2.236,2.236,0,0,0,2.317-2h.015c.3-1.09.954-2.207,2.289-2.207,1.635,0,2.153,1.09,2.153,2.888v.463c-7.139.927-9.292,2.861-9.292,5.776,0,2.67,1.717,4.278,5.341,4.278a6.9,6.9,0,0,0,4.06-1.253h.076a2.365,2.365,0,0,0,4.419.927h0a2.363,2.363,0,0,0-.518-2.938Zm-4.087-.412a4.8,4.8,0,0,1-3.052,1.172,1.82,1.82,0,0,1-2.043-2.016c0-1.635,1.39-2.861,5.1-3.379Z" transform="translate(-1262.038 -829.126)" fill="#fff"/>
        <path id="Path_302" data-name="Path 302" d="M2898.781,889.414a2.108,2.108,0,1,0-4.17.437V895.6a5.673,5.673,0,0,1-1.791,1.4,4.608,4.608,0,0,1-2.014.532,1.841,1.841,0,0,1-1.623-.727,5.816,5.816,0,0,1-.476-2.909v-4.469h-.013c0-.005,0-.01,0-.015a2.108,2.108,0,0,0-4.216,0,2.14,2.14,0,0,0,.032.367v5.46a6.445,6.445,0,0,0,1.092,4.2,4.611,4.611,0,0,0,3.608,1.315,7.244,7.244,0,0,0,3.357-.783,9.378,9.378,0,0,0,1.958-1.455h.14a5.652,5.652,0,0,0-.041,1.391,2.291,2.291,0,0,0,2.047,1.649,2.108,2.108,0,0,0,2.107-2.1h.026V889.429h-.026C2898.781,889.424,2898.781,889.419,2898.781,889.414Z" transform="translate(-2781.329 -880.642)" fill="#fff"/>
        <path id="Path_303" data-name="Path 303" d="M2552.693,767.383h-.028c-.058,0-.114,0-.171.009l-.084.009h-7.642v-4.239h8.074c.056,0,.112.007.169.007a1.7,1.7,0,1,0,.061-3.361,1.919,1.919,0,0,0-.215-.012,1.865,1.865,0,0,0-.244.016l-10.253-.005a2.341,2.341,0,0,0-1.531.48,1.82,1.82,0,0,0-.829,1.548l.023,16.715a1.707,1.707,0,0,0-.023.275,2.418,2.418,0,0,0,4.76,0c0-.005,0-.011,0-.016h.008v-8.082h7.613a2.4,2.4,0,0,0,.312.02,1.708,1.708,0,1,0,0-3.362Z" transform="translate(-2454.754 -759.759)" fill="#fff"/>
      </g>
    </g>
    <text id="普卡會員" transform="translate(300.424 217)" fill="#fff" font-size="19" font-family="YuGothicUI-Regular, Yu Gothic UI" letter-spacing="0.08em"><tspan x="0" y="0">普卡會員</tspan></text>
  </g>
  <text id="Going_camping_is_always_fun." data-name="Going camping is always fun." transform="translate(30 138.342)" fill="#fff" font-size="16" font-family="SegoeUI, Segoe UI" letter-spacing="0.08em"><tspan x="0" y="0">Going camping is always fun.</tspan></text>
</svg>
