<?xml version="1.0" encoding="utf-8"?>
<!-- Generator: Adobe Illustrator 22.1.0, SVG Export Plug-In . SVG Version: 6.00 Build 0)  -->
<svg version="1.1" id="圖層_1" xmlns="http://www.w3.org/2000/svg" xmlns:xlink="http://www.w3.org/1999/xlink" x="0px" y="0px"
	 viewBox="0 0 200 50" style="enable-background:new 0 0 200 50;" xml:space="preserve">
<style type="text/css">
	.st0{fill:#006837;}
	.st1{fill:#39B54A;}
	.st2{fill:#BA8A00;}
	.st3{fill:#FFFFFF;}
</style>
<g id="Group_229_1_" transform="translate(-135.224 -635.557)">
	<path id="Path_19_1_" class="st0" d="M158.2,638.2l-22,39.6h44L158.2,638.2z"/>
	<path id="Path_20_1_" class="st1" d="M158.2,658l-22,19.9h44L158.2,658z"/>
	<path id="Path_21_1_" class="st2" d="M158.2,667.9l-22,10l22,1.8l22-1.8L158.2,667.9z"/>
	<path id="Path_22_1_" class="st2" d="M158.2,682.9l22-5l-22,1.3l-22-1.3L158.2,682.9z"/>
</g>
<g id="Group_230_1_" transform="translate(-184.462 -87.121)">
	<path id="Path_297_1_" class="st3" d="M296.9,109.9c0-2.4-0.4-3.9-1.3-4.9c-0.9-0.9-2.1-1.5-3.4-1.4c-1,0-2.1,0.2-3,0.7
		c-1,0.5-1.8,1.1-2.6,1.8h-0.1c-0.3-0.6-0.7-1.2-1.3-1.7c-0.8-0.6-1.8-0.9-2.8-0.8c-1,0-2,0.2-2.9,0.7c-0.9,0.4-1.8,1-2.5,1.7h-0.1
		h0.1l0,0c0-1.2-1-2.3-2.2-2.3s-2.2,1-2.2,2.3l0,0l0,0v15.7l0,0l0,0c0,1.2,1,2.3,2.2,2.3s2.2-1,2.2-2.3l0,0l0,0v-12
		c0.5-0.7,1.1-1.2,1.8-1.7c0.5-0.4,1.2-0.6,1.8-0.6c0.5,0,1,0.2,1.3,0.7c0.5,1,0.7,2,0.6,3.2v10.4l0,0l0,0c0,1.2,1,2.3,2.2,2.3
		s2.2-1,2.2-2.3l0,0l0,0v-12c0.5-0.7,1.1-1.2,1.8-1.7c0.5-0.3,1.2-0.6,1.8-0.6s1.1,0.2,1.4,0.7c0.4,1,0.6,2.2,0.5,3.3v10.4l0,0l0,0
		c0,1.2,1,2.3,2.2,2.3s2.2-1,2.2-2.3c0-0.1,0-0.1,0-0.2L296.9,109.9z"/>
	<path id="Path_298_1_" class="st3" d="M309.8,104.4c-1,0-2,0.2-3,0.6c-0.8,0.3-1.5,0.8-2.1,1.3h-0.1l0,0l0,0c0-1.3-1.1-2.4-2.4-2.4
		s-2.3,1.1-2.3,2.5l0,0c0,0.1,0,0.1,0,0.2l0.2,24.1c0,0.1,0,0.1,0,0.2c0,1.3,1.1,2.4,2.4,2.4c1.2,0,2.2-1.1,2.3-2.4l0,0l0,0
		l-0.1-9.6h0.1c0.7,0.5,1.5,0.9,2.3,1.2c0.9,0.3,1.8,0.4,2.7,0.4c2.1,0.1,4-0.7,5.4-2.3c1.3-1.5,2-3.9,2-7.1c0-3.3-0.9-5.6-2.2-7
		C313.6,105,311.8,104.3,309.8,104.4z M311.7,118.3c-0.7,0.9-1.7,1.4-2.8,1.4c-0.8,0-1.5-0.2-2.2-0.5s-1.4-0.8-1.9-1.4l-0.1-8
		c0.6-0.6,1.2-1.1,2-1.5c0.7-0.3,1.4-0.5,2.1-0.5c1.1,0,2.1,0.5,2.8,1.3c0.8,1.4,1.1,3,1,4.6C312.6,116.1,312.2,117.4,311.7,118.3
		L311.7,118.3z"/>
	<path id="Path_299_1_" class="st3" d="M375.2,110.4c-1.1-1.1-2.5-1.7-3.9-1.5c-1.1,0-2.2,0.3-3.2,0.7c-1,0.5-2,1-2.9,1.7H365h0.1
		c0-0.1,0-0.9,0-1.1c0-1.3-1.1-2.5-2.4-2.5s-2.4,1.1-2.4,2.5c0,0.1,0,0.9,0,1V122c0,0.1,0,0.1,0,0.2c0,1.3,1.1,2.5,2.4,2.5
		s2.4-1.1,2.4-2.5c0-0.1,0-0.2,0-0.2v-7c0.7-0.7,1.4-1.3,2.3-1.7c0.6-0.3,1.4-0.5,2.1-0.5c0.7-0.1,1.4,0.3,1.8,0.9
		c0.5,1,0.7,2.3,0.6,3.4v4.9c0,0.1,0,0.2,0,0.3c0,1.3,1.1,2.5,2.4,2.5s2.4-1.1,2.4-2.5l0,0v-6.9
		C376.7,113.5,376.2,111.8,375.2,110.4z"/>
	<path id="Path_300_1_" class="st3" d="M250.3,113.8c-1.2,0-2.2,0.9-2.4,2.2l0,0c-0.5,2.4-2.1,4.8-4.9,4.8c-3.1,0-5.7-2.4-5.7-8.9
		s2.6-8.9,5.8-8.9c2.6,0,3.9,1.6,4.6,4.3l0,0l0,0c0,1.3,1.1,2.5,2.4,2.5s2.4-1.1,2.4-2.5c0-0.4-0.1-0.8-0.3-1.2
		c-1.3-4.3-4.7-6.4-9.2-6.4c-2.7-0.1-5.3,0.9-7.3,2.8c-2.1,1.9-3.3,5.1-3.3,9.2c0,4.6,1.3,7.7,3.3,9.5c2.1,1.7,4.6,2.7,7.2,2.6
		c4.1,0.1,7.9-2.6,9.4-6.6c0.1-0.2,0.2-0.4,0.2-0.7v-0.1l0,0c0-0.1,0-0.2,0-0.3C252.7,115,251.6,113.8,250.3,113.8L250.3,113.8z"/>
	<path id="Path_301_1_" class="st3" d="M270.1,119.1v-7.7c0-5.5-2.7-7-6.9-7c-4.9,0-6.7,2.5-7.4,4.9l0,0c-0.2,1.3,0.7,2.6,2,2.8l0,0
		c1.4,0.1,2.5-0.9,2.7-2.4l0,0c0.3-1.2,1.1-2.6,2.6-2.6c1.9,0,2.5,1.2,2.5,3.4v0.5c-8.1,1.1-10.5,3.4-10.5,6.8c0,3.2,2,5,6,5
		c1.7,0,3.3-0.5,4.6-1.4h0.1c0.1,1.5,1.5,2.7,3,2.5c0.9-0.1,1.7-0.6,2.1-1.4l0,0C271.2,121.3,270.9,119.9,270.1,119.1L270.1,119.1z
		 M265.4,118.6c-1,0.8-2.2,1.3-3.5,1.3c-1.1,0.1-2.2-0.7-2.3-1.8c0-0.2,0-0.3,0-0.5c0-1.9,1.6-3.4,5.7-4v5H265.4z"/>
	<path id="Path_302_1_" class="st3" d="M357.6,110.2c0-1.3-1.1-2.5-2.4-2.5s-2.4,1.1-2.4,2.5c0,0.2,0,0.3,0.1,0.5v6.8
		c-0.6,0.7-1.3,1.2-2.1,1.6c-0.7,0.4-1.5,0.6-2.3,0.6c-0.7,0.1-1.4-0.3-1.9-0.8c-0.5-1-0.7-2.3-0.5-3.4v-5.2l0,0l0,0
		c0-1.3-1.1-2.5-2.4-2.5s-2.4,1.1-2.4,2.5c0,0.1,0,0.3,0,0.4v6.5c0,2.4,0.4,3.9,1.3,4.9c1.1,1.1,2.6,1.6,4,1.5
		c1.3,0,2.7-0.3,3.7-0.9c0.8-0.5,1.6-1,2.2-1.7h0.2c-0.1,0.5-0.1,1.1,0,1.6c0.3,1.1,1.2,1.8,2.3,1.9c1.3,0,2.4-1.1,2.4-2.5l0,0
		L357.6,110.2L357.6,110.2L357.6,110.2z"/>
	<path id="Path_303_1_" class="st3" d="M336.1,108.8L336.1,108.8c-0.1,0-0.2,0-0.2,0h-0.1h-8.7v-5h9.2c0.1,0,0.1,0,0.2,0
		c1.1,0.2,2.1-0.5,2.3-1.6s-0.5-2.2-1.6-2.4c-0.2,0-0.4,0-0.6,0c-0.1,0-0.2,0-0.2,0c-0.1,0-0.2,0-0.3,0h-11.5
		c-0.6,0-1.3,0.2-1.8,0.5c-0.6,0.4-1,1.1-0.9,1.8v19.7c0,0.1,0,0.2,0,0.3c0.3,1.5,1.7,2.6,3.2,2.3c1.1-0.2,2-1.1,2.2-2.3l0,0l0,0
		v-9.5h8.6c0.1,0,0.2,0,0.4,0c1.1,0.2,2.1-0.5,2.3-1.6c0.2-1.1-0.5-2.2-1.6-2.4C336.6,108.8,336.3,108.8,336.1,108.8L336.1,108.8z"
		/>
</g>
</svg>
